<svg xmlns="http://www.w3.org/2000/svg" viewBox="0 0 1200 800" fill="none">
  <g fill="#7c3aed" fill-opacity="0.20" stroke="#7c3aed" stroke-opacity="0.22" stroke-width="3">
    <!-- shield with check -->
    <path d="M930 360 l130 48 v120 q0 120 -130 172 q-130 -52 -130 -172 v-120 z"/>
    <polyline points="872,540 918,584 1000,492" fill="none" stroke-width="7" stroke-linecap="round" stroke-linejoin="round"/>
    <!-- bar chart -->
    <rect x="150" y="560" width="48" height="140" rx="4"/>
    <rect x="220" y="500" width="48" height="200" rx="4"/>
    <rect x="290" y="600" width="48" height="100" rx="4"/>
    <rect x="360" y="460" width="48" height="240" rx="4"/>
    <!-- gear -->
    <circle cx="300" cy="260" r="70"/>
    <circle cx="300" cy="260" r="28"/>
    <g stroke-width="22" stroke="#7c3aed" stroke-opacity="0.22">
      <line x1="300" y1="170" x2="300" y2="200"/>
      <line x1="300" y1="320" x2="300" y2="350"/>
      <line x1="210" y1="260" x2="240" y2="260"/>
      <line x1="360" y1="260" x2="390" y2="260"/>
      <line x1="236" y1="196" x2="257" y2="217"/>
      <line x1="343" y1="303" x2="364" y2="324"/>
    </g>
  </g>
  <!-- faint world dots -->
  <g fill="#8b5cf6" fill-opacity="0.20">
    <circle cx="760" cy="200" r="5"/><circle cx="800" cy="220" r="5"/><circle cx="840" cy="205" r="5"/>
    <circle cx="900" cy="230" r="5"/><circle cx="950" cy="210" r="5"/><circle cx="1000" cy="240" r="5"/>
    <circle cx="1050" cy="220" r="5"/><circle cx="820" cy="260" r="5"/><circle cx="980" cy="270" r="5"/>
  </g>
</svg>
