<svg xmlns="http://www.w3.org/2000/svg" viewBox="0 0 1200 800" fill="none">
  <g fill="#059669" fill-opacity="0.20" stroke="#059669" stroke-opacity="0.22" stroke-width="3">
    <!-- city skyline -->
    <rect x="120" y="430" width="90" height="270" rx="4"/>
    <rect x="225" y="500" width="80" height="200" rx="4"/>
    <rect x="320" y="380" width="100" height="320" rx="4"/>
    <rect x="435" y="480" width="80" height="220" rx="4"/>
    <!-- window dots -->
    <g fill="#059669" fill-opacity="0.26" stroke="none">
      <rect x="138" y="455" width="14" height="14"/><rect x="170" y="455" width="14" height="14"/>
      <rect x="138" y="495" width="14" height="14"/><rect x="170" y="495" width="14" height="14"/>
      <rect x="342" y="410" width="14" height="14"/><rect x="378" y="410" width="14" height="14"/>
      <rect x="342" y="450" width="14" height="14"/><rect x="378" y="450" width="14" height="14"/>
    </g>
    <!-- briefcase -->
    <rect x="760" y="560" width="300" height="180" rx="14"/>
    <path d="M860 560 v-26 q0 -16 16 -16 h68 q16 0 16 16 v26"/>
    <line x1="760" y1="630" x2="1060" y2="630"/>
    <rect x="895" y="616" width="30" height="28" rx="4"/>
    <!-- upward growth chart -->
    <polyline points="780,470 850,420 910,450 1000,350 1060,300" fill="none" stroke-width="5"/>
    <polygon points="1060,300 1062,348 1018,322"/>
  </g>
</svg>
